<?xml version="1.0" encoding="UTF-8"?>
<svg id="Layer_2" data-name="Layer 2" xmlns="http://www.w3.org/2000/svg" viewBox="0 0 11.33 14.12">
  <defs>
    <style>
      .cls-1 {
        fill: #006289;
      }
    </style>
  </defs>
  <g id="Layer_1-2" data-name="Layer 1">
    <g>
      <path class="cls-1" d="M11.33,8.54v4.19s-.41,.35-1.32,.7c-.92,.34-2.33,.69-4.34,.69-4.02,0-5.66-1.39-5.66-1.39v-4.19c0-.96,.52-1.86,1.36-2.33l.57-.33c.74,1.29,2.14,2.17,3.74,2.17s2.99-.88,3.74-2.17l.57,.33c.84,.48,1.36,1.37,1.36,2.33Z"/>
      <path class="cls-1" d="M9.41,3.74c0,.11,0,.22-.02,.33,0,.05,0,.09-.01,.14-.03,.26-.1,.52-.19,.77-.04,.12-.09,.24-.15,.36-.01,.03-.03,.06-.05,.09-.03,.06-.06,.11-.09,.17-.07,.12-.15,.25-.24,.36-.02,.03-.03,.05-.05,.07-.05,.06-.09,.11-.14,.16-.05,.06-.11,.12-.16,.18-.05,.05-.09,.09-.14,.13-.02,.02-.04,.04-.06,.06-.05,.05-.11,.09-.16,.14-.12,.1-.26,.19-.4,.28-.07,.04-.14,.08-.21,.12-.14,.07-.28,.13-.42,.18-.06,.03-.12,.04-.19,.06-.07,.03-.14,.05-.21,.06-.09,.02-.18,.05-.27,.06-.05,.01-.09,.02-.14,.02-.07,0-.14,.01-.2,.02-.09,0-.17,.01-.26,.01s-.18,0-.26-.01l-.2-.02c-.05,0-.1-.01-.15-.02-.05,0-.1-.02-.15-.03-.02,0-.05-.01-.08-.02-.08-.02-.16-.04-.24-.07-.07-.02-.15-.04-.21-.07-.06-.02-.12-.04-.17-.07-.07-.03-.15-.06-.22-.1s-.15-.08-.21-.12c-.14-.08-.27-.17-.4-.28-.06-.05-.11-.09-.16-.14-.02-.02-.05-.03-.06-.06-.05-.04-.09-.08-.14-.13-.06-.06-.11-.12-.16-.18-.06-.06-.11-.12-.15-.19-.1-.13-.19-.26-.26-.41-.03-.06-.06-.11-.09-.17-.11-.2-.19-.41-.25-.62-.03-.1-.06-.2-.08-.31-.02-.08-.03-.17-.05-.25,0-.02,0-.03,0-.05,0-.04-.01-.08-.01-.12-.01-.11-.02-.22-.02-.33C1.92,1.68,3.59,0,5.66,0s3.74,1.68,3.74,3.74Z"/>
    </g>
  </g>
</svg>