<?xml version="1.0" encoding="UTF-8"?>
<svg id="Layer_2" data-name="Layer 2" xmlns="http://www.w3.org/2000/svg" viewBox="0 0 14.17 14.12">
  <defs>
    <style>
      .cls-1 {
        fill: #016698;
      }
    </style>
  </defs>
  <g id="Layer_1-2" data-name="Layer 1">
    <path class="cls-1" d="M3.89,.39l.68,.68c.5,.5,.8,1.61,.3,2.11l-1.55,.95c.46,.97,1.26,2.35,2.58,3.71,1.47,1.51,2.98,2.38,4,2.87,.35-.55,.69-1.09,1.04-1.64,.45-.45,1.48-.15,1.93,.3l.94,.94c.48,.48,.48,1.25,0,1.73l-1.14,1.14c-1.48,1.48-3.24,1.04-4.89-.25-1.18-.92-2.43-2.01-3.69-3.28-1.35-1.37-2.48-2.72-3.43-3.99C-.34,4.34-.19,2.47,.99,1.29l.69-.69C2.44-.16,3.34-.16,3.89,.39Z"/>
  </g>
</svg>